<?xml version="1.0" standalone="no"?><!DOCTYPE svg PUBLIC "-//W3C//DTD SVG 1.1//EN" "http://www.w3.org/Graphics/SVG/1.1/DTD/svg11.dtd"><svg t="1738726355627" class="icon" viewBox="0 0 1024 1024" version="1.1" xmlns="http://www.w3.org/2000/svg" p-id="7762" xmlns:xlink="http://www.w3.org/1999/xlink" width="256" height="256"><path d="M512 512m-512 0a512 512 0 1 0 1024 0 512 512 0 1 0-1024 0Z" fill="#52C41A" opacity=".2" p-id="7763"></path><path d="M321.536 494.72l160.128 81.024c9.984 4.992 21.888 8.064 34.944 8.064 11.904 0 24.192-3.072 34.944-8.064l160.128-81.024a29.738667 29.738667 0 0 0 14.976-24.96 28.330667 28.330667 0 0 0-14.976-24.96l-160.128-81.024a73.770667 73.770667 0 0 0-34.944-8.832c-11.904 0-24.192 3.072-34.944 8.064l-160.128 80.64c-8.832 6.144-14.976 14.976-14.976 26.112 0 9.6 6.144 19.584 14.976 24.96z m373.632 51.072l-157.056 86.016a45.568 45.568 0 0 1-39.936 0L339.2 545.792c-9.984-6.144-23.04-1.92-29.184 8.064-6.144 9.984-1.92 23.04 8.064 29.184l160.128 86.016c12.288 6.144 25.344 9.216 39.168 8.832 13.056 0 26.112-3.072 39.936-8.832l160.128-86.016a21.205333 21.205333 0 0 0 6.912-29.184c-6.528-10.368-19.2-14.208-29.184-8.064zM290.048 314.624c0 25.728-20.352 46.848-45.312 46.848-24.96 0-45.312-20.736-45.312-46.848 0-25.728 20.352-46.848 45.312-46.848 25.344 0 45.312 21.12 45.312 46.848z m549.504 363.264c0 25.728-20.352 46.464-45.312 46.464a45.909333 45.909333 0 0 1-45.312-46.464c0-25.728 20.352-46.848 45.312-46.848 24.96 0 45.312 20.736 45.312 46.848zM382.208 224.768a25.301333 25.301333 0 1 1-50.645333 0.042667 25.301333 25.301333 0 0 1 50.645333-0.042667z m-39.168-21.12a353.706667 353.706667 0 0 1 177.408-43.008 353.877333 353.877333 0 0 1 248.832 108.672 346.368 346.368 0 0 1 98.304 250.752c-1.152 55.68-15.744 109.44-43.392 160.512-3.072 8.448-11.52 13.824-21.504 13.824a23.594667 23.594667 0 0 1-23.424-23.808c0-1.92 0.384-3.072 0.768-4.224v-1.92l1.152-2.304a298.24 298.24 0 0 0 38.016-140.928 298.922667 298.922667 0 0 0-84.864-216.192 306.432 306.432 0 0 0-215.04-93.696 305.109333 305.109333 0 0 0-150.144 35.712M255.872 349.184a297.258667 297.258667 0 0 0-50.304 158.976 298.922667 298.922667 0 0 0 84.864 216.192 306.432 306.432 0 0 0 215.04 93.696c65.28 1.536 127.872-17.664 183.168-55.68a20.522667 20.522667 0 0 1 15.744-6.528 23.594667 23.594667 0 0 1 23.424 23.808c0 5.76-2.304 11.52-6.528 15.744-62.208 44.544-134.4 67.968-208.512 67.968h-8.448c-196.224-4.608-352.512-165.888-347.904-359.808A341.504 341.504 0 0 1 212.48 323.456" fill="#52C41A" p-id="7764"></path></svg>